<svg width="100" height="45" viewBox="0 0 100 45" fill="none" xmlns="http://www.w3.org/2000/svg">
<path d="M23.8106 22.418L40.0498 13.7661C43.8723 11.7292 45.1822 7.21884 42.975 3.6924C40.7679 0.164776 35.8817 -1.04401 32.0591 0.992847L3.99768 15.9445L23.8106 22.418Z" fill="#FC2B25"/>
<path d="M36.0464 44.6553C38.8079 44.6553 41.4934 43.3323 42.9747 40.967C45.1806 37.4406 43.8707 32.9303 40.0482 30.8934L11.9868 15.943C8.16552 13.9049 3.27805 15.1149 1.07218 18.6413C-1.13498 22.169 0.174874 26.6793 3.99744 28.715L32.0588 43.6654C33.3171 44.3364 34.6914 44.6553 36.0464 44.6553Z" fill="#1F85FA"/>
<path d="M63.9542 44.655C65.3092 44.655 66.6835 44.3362 67.9418 43.6652L96.0032 28.7148L76.443 22.1069L59.9512 30.8932C56.1299 32.93 54.82 37.4404 57.0259 40.9668C58.5059 43.332 61.1927 44.655 63.9542 44.655Z" fill="#FEB700"/>
<path d="M92.0004 29.7024C94.762 29.7024 97.4474 28.3806 98.9288 26.0141C101.135 22.4877 99.8248 17.9773 96.0035 15.9405L67.9408 0.988817C64.1195 -1.04686 59.2334 0.160748 57.0262 3.68838C54.8203 7.21481 56.1289 11.7252 59.9515 13.762L88.0128 28.7125C89.2711 29.3823 90.6454 29.7024 92.0004 29.7024Z" fill="#09A947"/>
</svg>